# Cube Vertices
v -1.0 -1.0 -1.0
v  1.0 -1.0 -1.0
v  1.0  1.0 -1.0
v -1.0  1.0 -1.0
v -1.0 -1.0  1.0
v  1.0 -1.0  1.0
v  1.0  1.0  1.0
v -1.0  1.0  1.0

vn  1.0  0.0  0.0
vn -1.0  0.0  0.0
vn  0.0  1.0  0.0
vn  0.0 -1.0  0.0
vn  0.0  0.0  1.0
vn  0.0  0.0 -1.0

# Cube Faces
# Front
f 1//4 2//4 5//4
f 5//4 2//4 6//4

# Back
f 3//3 4//3 7//3
f 7//3 4//3 8//3

# Left
f 4//2 1//2 8//2
f 8//2 1//2 5//2

# Right
f 2//1 3//1 6//1
f 6//1 3//1 7//1

# Top
f 5//5 6//5 8//5
f 8//5 6//5 7//5

# Bottom
f 2//6 1//6 3//6
f 3//6 1//6 4//6